<svg xmlns="http://www.w3.org/2000/svg" viewBox="0 0 64 64" fill="none">
  <rect x="6" y="6" width="46" height="46" rx="14" fill="#0EA5E9"/>
  <path d="M34.616 20.11c-1.87-1.11-4.09-1.665-6.662-1.665-2.38 0-4.518.558-6.415 1.674-1.87 1.09-3.35 2.625-4.44 4.606-1.09 1.98-1.635 4.227-1.635 6.742 0 2.515.545 4.763 1.635 6.742 1.09 1.98 2.57 3.528 4.44 4.645 1.897 1.09 4.035 1.635 6.415 1.635 2.57 0 4.791-.544 6.662-1.635 1.897-1.116 3.336-2.666 4.318-4.65l-5.035-2.325c-.437 1.01-1.104 1.788-2.001 2.333-.898.518-1.939.777-3.124.777-1.2 0-2.271-.286-3.212-.859a5.788 5.788 0 0 1-2.164-2.407c-.519-1.037-.778-2.262-.778-3.674 0-1.385.259-2.596.778-3.634a5.617 5.617 0 0 1 2.164-2.407c.941-.572 2.012-.859 3.212-.859 1.185 0 2.226.273 3.124.818.897.518 1.564 1.294 2.001 2.328l5.035-2.328c-.982-1.98-2.421-3.53-4.318-4.646Z" fill="#ffffff"/>
  <circle cx="50.5" cy="50.5" r="7.5" fill="#31C8A7"/>
</svg>
